# xmcd
#
# Track frame offsets:
# 150
# 16320
# 34306
# 48536
# 62583
#
# Disc length: 1133 seconds
#
# Revision: 0
# Processed by: cddbd v1.5.2PL0 Copyright (c) Steve Scherf et al.
# Submitted via: Audion 3.0.2 (http://www.panic.com/audion/)
#
DISCID=3c046b05
DTITLE=Ben Potts and The Hillman Hunters - Demo
DYEAR=1900
DGENRE=
TTITLE0=T-Bone Shuffle
TTITLE1=Love Her With A Feeling
TTITLE2=Hucklebuck
TTITLE3=Boney Moronie
TTITLE4=Long Distance Call
EXTD=
EXTT0=
EXTT1=
EXTT2=
EXTT3=
EXTT4=
PLAYORDER=
